<svg width="178" height="196" viewBox="0 0 178 196" fill="none" xmlns="http://www.w3.org/2000/svg">
<path d="M159.69 64.6771C153.995 108.797 122.651 141.216 95.2015 174.244C70.221 143.646 39.4582 116.613 24.8576 79.1717C17.3861 60.0177 12.3573 32.8003 26.7695 15.5072C33.2952 7.67665 45.433 11.5686 53.03 16.145C61.8787 21.4808 68.5785 29.7507 73.5851 38.6726C85.0748 59.147 87.5579 83.2338 89.8546 106.164C90.1037 108.655 105.891 100.737 106.687 97.2586C112.411 72.2869 118.153 46.2682 131.82 24.2246C135.236 18.7167 138.205 12.8605 145.679 15.1143C151.83 16.9671 154.566 22.394 156.518 28.0052C160.597 39.7276 161.27 52.4383 159.69 64.6771ZM176.999 36.2569C176.154 26.5675 174.224 12.2976 165.349 6.52243C147.901 -4.83554 124.455 16.6472 116.006 30.3055C110.025 39.9686 105.482 50.2918 101.77 60.9431C99.2663 49.0141 95.4871 37.4394 89.1802 26.934C77.6702 7.75359 57.5688 -5.2932 35.2699 3.7462C12.3087 13.0549 -0.327419 33.343 1.05993 57.9826C2.43311 82.3772 13.9532 104.889 28.0374 124.348C44.716 147.413 65.4656 167.136 82.9178 189.572C82.8287 189.694 82.7355 189.795 82.6444 189.916C81.0322 192.042 82.8469 192.205 84.7265 191.941C85.3624 192.772 86.0024 193.602 86.6282 194.432C89.1842 197.894 105.361 187.385 103.414 184.753C102.493 183.517 101.555 182.282 100.609 181.047C128.281 145.408 163.883 112.948 174.57 67.4776C176.978 57.2415 177.914 46.7441 176.999 36.2569Z" fill="#FF0000"/>
</svg>
